{
	"asset":{
		"generator":"Khronos glTF Blender I/O v5.1.20",
		"version":"2.0"
	},
	"extensionsUsed":[
		"KHR_materials_specular"
	],
	"scene":0,
	"scenes":[
		{
			"name":"Scene",
			"nodes":[
				1
			]
		}
	],
	"nodes":[
		{
			"mesh":0,
			"name":"tripo_node_72de5f39",
			"rotation":[
				-0.70710688829422,
				0,
				0,
				0.7071066498756409
			]
		},
		{
			"children":[
				0
			],
			"name":"RootNode"
		}
	],
	"materials":[
		{
			"extensions":{
				"KHR_materials_specular":{
					"specularColorFactor":[
						0.800000011920929,
						0.800000011920929,
						0.800000011920929
					]
				}
			},
			"name":"tripo_mat_72de5f39",
			"pbrMetallicRoughness":{
				"baseColorFactor":[
					0.800000011920929,
					0.800000011920929,
					0.800000011920929,
					1
				],
				"metallicFactor":0,
				"roughnessFactor":0.5
			}
		}
	],
	"meshes":[
		{
			"name":"tripo_mesh_72de5f39",
			"primitives":[
				{
					"attributes":{
						"POSITION":0,
						"NORMAL":1,
						"TEXCOORD_0":2
					},
					"indices":3,
					"material":0
				}
			]
		}
	],
	"accessors":[
		{
			"bufferView":0,
			"componentType":5126,
			"count":13878,
			"max":[
				0.029966801404953003,
				0.4866347312927246,
				0.49985188245773315
			],
			"min":[
				-0.029908182099461555,
				-0.4866512417793274,
				-0.4998273551464081
			],
			"type":"VEC3"
		},
		{
			"bufferView":1,
			"componentType":5126,
			"count":13878,
			"type":"VEC3"
		},
		{
			"bufferView":2,
			"componentType":5126,
			"count":13878,
			"type":"VEC2"
		},
		{
			"bufferView":3,
			"componentType":5123,
			"count":58590,
			"type":"SCALAR"
		}
	],
	"bufferViews":[
		{
			"buffer":0,
			"byteLength":166536,
			"byteOffset":0,
			"target":34962
		},
		{
			"buffer":0,
			"byteLength":166536,
			"byteOffset":166536,
			"target":34962
		},
		{
			"buffer":0,
			"byteLength":111024,
			"byteOffset":333072,
			"target":34962
		},
		{
			"buffer":0,
			"byteLength":117180,
			"byteOffset":444096,
			"target":34963
		}
	],
	"buffers":[
		{
			"byteLength":561276,
			"uri":"3DaudioT0.bin"
		}
	]
}
