{
	"asset":{
		"generator":"Khronos glTF Blender I/O v5.1.20",
		"version":"2.0"
	},
	"extensionsUsed":[
		"KHR_materials_specular"
	],
	"scene":0,
	"scenes":[
		{
			"name":"Scene",
			"nodes":[
				1
			]
		}
	],
	"nodes":[
		{
			"mesh":0,
			"name":"tripo_node_106aad4f",
			"rotation":[
				-0.70710688829422,
				0,
				0,
				0.7071066498756409
			]
		},
		{
			"children":[
				0
			],
			"name":"RootNode"
		}
	],
	"materials":[
		{
			"extensions":{
				"KHR_materials_specular":{
					"specularColorFactor":[
						0.800000011920929,
						0.800000011920929,
						0.800000011920929
					]
				}
			},
			"name":"tripo_mat_106aad4f",
			"pbrMetallicRoughness":{
				"baseColorFactor":[
					0.800000011920929,
					0.800000011920929,
					0.800000011920929,
					1
				],
				"metallicFactor":0,
				"roughnessFactor":0.5
			}
		}
	],
	"meshes":[
		{
			"name":"tripo_mesh_106aad4f",
			"primitives":[
				{
					"attributes":{
						"POSITION":0,
						"NORMAL":1,
						"TEXCOORD_0":2
					},
					"indices":3,
					"material":0
				}
			]
		}
	],
	"accessors":[
		{
			"bufferView":0,
			"componentType":5126,
			"count":14551,
			"max":[
				0.010489318519830704,
				0.41905859112739563,
				0.4989141523838043
			],
			"min":[
				-0.009732750244438648,
				-0.4189234673976898,
				-0.49975666403770447
			],
			"type":"VEC3"
		},
		{
			"bufferView":1,
			"componentType":5126,
			"count":14551,
			"type":"VEC3"
		},
		{
			"bufferView":2,
			"componentType":5126,
			"count":14551,
			"type":"VEC2"
		},
		{
			"bufferView":3,
			"componentType":5123,
			"count":61911,
			"type":"SCALAR"
		}
	],
	"bufferViews":[
		{
			"buffer":0,
			"byteLength":174612,
			"byteOffset":0,
			"target":34962
		},
		{
			"buffer":0,
			"byteLength":174612,
			"byteOffset":174612,
			"target":34962
		},
		{
			"buffer":0,
			"byteLength":116408,
			"byteOffset":349224,
			"target":34962
		},
		{
			"buffer":0,
			"byteLength":123822,
			"byteOffset":465632,
			"target":34963
		}
	],
	"buffers":[
		{
			"byteLength":589456,
			"uri":"3DvideoT1.bin"
		}
	]
}
