{
	"asset":{
		"generator":"Khronos glTF Blender I/O v5.1.20",
		"version":"2.0"
	},
	"extensionsUsed":[
		"KHR_materials_specular"
	],
	"scene":0,
	"scenes":[
		{
			"name":"Scene",
			"nodes":[
				1
			]
		}
	],
	"nodes":[
		{
			"mesh":0,
			"name":"tripo_node_d2ac4d4f",
			"rotation":[
				-0.70710688829422,
				0,
				0,
				0.7071066498756409
			]
		},
		{
			"children":[
				0
			],
			"name":"RootNode"
		}
	],
	"materials":[
		{
			"extensions":{
				"KHR_materials_specular":{
					"specularColorFactor":[
						0.800000011920929,
						0.800000011920929,
						0.800000011920929
					]
				}
			},
			"name":"tripo_mat_d2ac4d4f",
			"pbrMetallicRoughness":{
				"baseColorFactor":[
					0.800000011920929,
					0.800000011920929,
					0.800000011920929,
					1
				],
				"metallicFactor":0,
				"roughnessFactor":0.5
			}
		}
	],
	"meshes":[
		{
			"name":"tripo_mesh_d2ac4d4f",
			"primitives":[
				{
					"attributes":{
						"POSITION":0,
						"NORMAL":1,
						"TEXCOORD_0":2
					},
					"indices":3,
					"material":0
				}
			]
		}
	],
	"accessors":[
		{
			"bufferView":0,
			"componentType":5126,
			"count":13691,
			"max":[
				0.39198705554008484,
				0.013944096863269806,
				0.4993550479412079
			],
			"min":[
				-0.39159730076789856,
				-0.01414546463638544,
				-0.49931418895721436
			],
			"type":"VEC3"
		},
		{
			"bufferView":1,
			"componentType":5126,
			"count":13691,
			"type":"VEC3"
		},
		{
			"bufferView":2,
			"componentType":5126,
			"count":13691,
			"type":"VEC2"
		},
		{
			"bufferView":3,
			"componentType":5123,
			"count":61968,
			"type":"SCALAR"
		}
	],
	"bufferViews":[
		{
			"buffer":0,
			"byteLength":164292,
			"byteOffset":0,
			"target":34962
		},
		{
			"buffer":0,
			"byteLength":164292,
			"byteOffset":164292,
			"target":34962
		},
		{
			"buffer":0,
			"byteLength":109528,
			"byteOffset":328584,
			"target":34962
		},
		{
			"buffer":0,
			"byteLength":123936,
			"byteOffset":438112,
			"target":34963
		}
	],
	"buffers":[
		{
			"byteLength":562048,
			"uri":"3DcarruselT2.bin"
		}
	]
}
