{
	"asset":{
		"generator":"Khronos glTF Blender I/O v3.6.27",
		"version":"2.0"
	},
	"extensionsUsed":[
		"KHR_texture_transform",
		"KHR_materials_specular"
	],
	"extensionsRequired":[
		"KHR_texture_transform"
	],
	"scene":0,
	"scenes":[
		{
			"name":"Scene",
			"nodes":[
				17
			]
		}
	],
	"nodes":[
		{
			"mesh":0,
			"name":"BASE_HEART_1_Mat_0"
		},
		{
			"children":[
				0
			],
			"name":"BASE_HEART_1",
			"rotation":[
				-0.70710688829422,
				0,
				0,
				0.7071066498756409
			],
			"translation":[
				-0.7653045654296875,
				0,
				-0.25510212779045105
			]
		},
		{
			"name":"Generador_Malla_Volumen_remesh"
		},
		{
			"name":"Generador_Malla_Volumen_remesh_2"
		},
		{
			"name":"Generador_Malla_Volumen_remesh_3"
		},
		{
			"name":"Generador_Malla_Volumen_remesh_4"
		},
		{
			"children":[
				2,
				3,
				4,
				5
			],
			"name":"Love_1"
		},
		{
			"name":"Generador_Malla_Volumen_remesh_5",
			"translation":[
				0,
				3.814697265625e-06,
				0
			]
		},
		{
			"name":"Generador_Malla_Volumen_remesh_6",
			"translation":[
				0,
				3.814697265625e-06,
				0
			]
		},
		{
			"name":"Generador_Malla_Volumen_remesh_7",
			"translation":[
				0,
				3.814697265625e-06,
				0
			]
		},
		{
			"name":"Generador_Malla_Volumen_remesh_8",
			"translation":[
				0,
				3.814697265625e-06,
				0
			]
		},
		{
			"children":[
				7,
				8,
				9,
				10
			],
			"name":"Love_2",
			"translation":[
				-756.4984741210938,
				-156.33934020996094,
				0
			]
		},
		{
			"children":[
				6,
				11
			],
			"name":"love_is_love",
			"translation":[
				-258.544677734375,
				99.2157211303711,
				-64.62751007080078
			]
		},
		{
			"name":"Scene_Nodes_Representation"
		},
		{
			"children":[
				1,
				12,
				13
			],
			"name":"RootNode"
		},
		{
			"children":[
				14
			],
			"name":"Object_2"
		},
		{
			"children":[
				15
			],
			"name":"a23d0f767ef747e19187bb1632d9f2b6.fbx",
			"rotation":[
				0.70710688829422,
				0,
				0,
				0.7071066498756409
			],
			"scale":[
				0.009999999776482582,
				0.010000000707805157,
				0.010000000707805157
			]
		},
		{
			"children":[
				16
			],
			"name":"Sketchfab_model",
			"rotation":[
				-0.70710688829422,
				0,
				0,
				0.7071066498756409
			]
		}
	],
	"animations":[
		{
			"channels":[
				{
					"sampler":0,
					"target":{
						"node":1,
						"path":"rotation"
					}
				},
				{
					"sampler":1,
					"target":{
						"node":1,
						"path":"scale"
					}
				}
			],
			"name":"CINEMA_4D_Principal",
			"samplers":[
				{
					"input":5,
					"interpolation":"LINEAR",
					"output":6
				},
				{
					"input":5,
					"interpolation":"LINEAR",
					"output":7
				}
			]
		}
	],
	"materials":[
		{
			"doubleSided":true,
			"extensions":{
				"KHR_materials_specular":{
					"specularColorTexture":{
						"extensions":{
							"KHR_texture_transform":{
								"offset":[
									0.05577903250224803,
									-0.1958254142408241
								],
								"rotation":-0.03549833223223686,
								"scale":[
									1.6703479290008545,
									0.9636777639389038
								]
							}
						},
						"index":0
					}
				}
			},
			"name":"material",
			"pbrMetallicRoughness":{
				"baseColorTexture":{
					"extensions":{
						"KHR_texture_transform":{
							"offset":[
								0.05577903250224803,
								-0.1958254142408241
							],
							"rotation":-0.03549833223223686,
							"scale":[
								1.6703479290008545,
								0.9636777639389038
							]
						}
					},
					"index":1
				},
				"metallicFactor":0.6932544112205505,
				"roughnessFactor":0.4805685877799988
			}
		}
	],
	"meshes":[
		{
			"name":"BASE_HEART_1_Mat_0",
			"primitives":[
				{
					"attributes":{
						"POSITION":0,
						"NORMAL":1,
						"TEXCOORD_0":2,
						"TEXCOORD_1":3
					},
					"indices":4,
					"material":0
				}
			]
		}
	],
	"textures":[
		{
			"sampler":0,
			"source":0
		},
		{
			"sampler":0,
			"source":1
		}
	],
	"images":[
		{
			"mimeType":"image/png",
			"name":"Image",
			"uri":"Image.png"
		},
		{
			"mimeType":"image/png",
			"name":"material_baseColor",
			"uri":"material_baseColor.png"
		}
	],
	"accessors":[
		{
			"bufferView":0,
			"componentType":5126,
			"count":2486,
			"max":[
				86.62989044189453,
				42.56686782836914,
				153.7223663330078
			],
			"min":[
				-86.26913452148438,
				-42.566856384277344,
				2.9498066902160645
			],
			"type":"VEC3"
		},
		{
			"bufferView":1,
			"componentType":5126,
			"count":2486,
			"type":"VEC3"
		},
		{
			"bufferView":2,
			"componentType":5126,
			"count":2486,
			"type":"VEC2"
		},
		{
			"bufferView":3,
			"componentType":5126,
			"count":2486,
			"type":"VEC2"
		},
		{
			"bufferView":4,
			"componentType":5123,
			"count":14400,
			"type":"SCALAR"
		},
		{
			"bufferView":5,
			"componentType":5126,
			"count":33,
			"max":[
				1.3333333333333333
			],
			"min":[
				0
			],
			"type":"SCALAR"
		},
		{
			"bufferView":6,
			"componentType":5126,
			"count":33,
			"type":"VEC4"
		},
		{
			"bufferView":7,
			"componentType":5126,
			"count":33,
			"type":"VEC3"
		}
	],
	"bufferViews":[
		{
			"buffer":0,
			"byteLength":29832,
			"byteOffset":0,
			"target":34962
		},
		{
			"buffer":0,
			"byteLength":29832,
			"byteOffset":29832,
			"target":34962
		},
		{
			"buffer":0,
			"byteLength":19888,
			"byteOffset":59664,
			"target":34962
		},
		{
			"buffer":0,
			"byteLength":19888,
			"byteOffset":79552,
			"target":34962
		},
		{
			"buffer":0,
			"byteLength":28800,
			"byteOffset":99440,
			"target":34963
		},
		{
			"buffer":0,
			"byteLength":132,
			"byteOffset":128240
		},
		{
			"buffer":0,
			"byteLength":528,
			"byteOffset":128372
		},
		{
			"buffer":0,
			"byteLength":396,
			"byteOffset":128900
		}
	],
	"samplers":[
		{
			"magFilter":9729,
			"minFilter":9987
		}
	],
	"buffers":[
		{
			"byteLength":129296,
			"uri":"emnkho-10.bin"
		}
	]
}
